<svg xmlns="http://www.w3.org/2000/svg" xmlns:xlink="http://www.w3.org/1999/xlink" width="150.64" height="43" viewBox="0 0 150.64 43"><defs><clipPath id="a"><path d="M33.5,54.186c-.019-3.44,1.537-6.036,4.686-7.948a10.07,10.07,0,0,0-7.939-4.18c-3.327-.262-6.964,1.94-8.3,1.94-1.406,0-4.63-1.846-7.161-1.846C9.558,42.235,4,46.322,4,54.636a23.361,23.361,0,0,0,1.35,7.611c1.2,3.44,5.53,11.875,10.048,11.735,2.362-.056,4.03-1.678,7.1-1.678,2.981,0,4.527,1.678,7.161,1.678,4.555-.066,8.473-7.733,9.617-11.182-6.111-2.877-5.783-8.436-5.783-8.614ZM28.191,38.8A8.828,8.828,0,0,0,30.441,32a9.939,9.939,0,0,0-6.364,3.271,8.966,8.966,0,0,0-2.4,6.739C24.124,42.2,26.354,40.942,28.191,38.8Z" transform="translate(-4 -32)" fill="#111"/></clipPath><linearGradient id="b" x1="0.076" y1="0.022" x2="0.685" y2="1.094" gradientUnits="objectBoundingBox"><stop offset="0" stop-color="#e91e8c"/><stop offset="1" stop-color="#f55b46"/></linearGradient></defs><g transform="translate(-108.255 -31.976)"><g transform="translate(108.255 32.842)" clip-path="url(#a)"><g transform="translate(-7.107 -2.97)"><path d="M22.014,0C34.172,0,44.028,11.58,44.028,25.864S34.172,51.729,22.014,51.729,0,40.149,0,25.864,9.856,0,22.014,0Z" transform="translate(2.865 1.016)" fill="url(#b)"/><path d="M6.843,1.312C-5.8-5.206-8.931,26.783,7.213,19.252S-.206,22.848,0,23.084C9.12,33.4,12.222,25.063,15.1,27.717c2.919,2.694,3.251-7.9,3.251-7.9S19.484,7.83,6.843,1.312Z" transform="matrix(-0.97, 0.242, -0.242, -0.97, 24.701, 44.531)" fill="#55cafb"/><path d="M2084.7,604.4c-18.688-1.987-27.751,14.576-23.225,25.6s11.5-5.57,18.932,1.66,24.149-6.4,24.149-6.4S2103.387,606.389,2084.7,604.4Z" transform="translate(-2057.457 -604.238)" fill="#6c28f5"/></g></g><text transform="translate(205.895 63.976)" fill="#fff" font-size="30" font-family="Poppins-Bold, Poppins" font-weight="700"><tspan x="-52.8" y="0">APPLEE</tspan></text></g></svg>