<svg xmlns="http://www.w3.org/2000/svg" xmlns:xlink="http://www.w3.org/1999/xlink" width="24" height="24" viewBox="0 0 24 24"><defs><clipPath id="a"><path d="M19.656,43.776a4.644,4.644,0,0,1,2.487-4.219,5.345,5.345,0,0,0-4.214-2.219c-1.766-.139-3.7,1.03-4.4,1.03-.746,0-2.458-.98-3.8-.98C6.95,37.433,4,39.6,4,44.015a12.4,12.4,0,0,0,.716,4.04c.637,1.826,2.935,6.3,5.333,6.229,1.254-.03,2.139-.891,3.771-.891,1.582,0,2.4.891,3.8.891,2.418-.035,4.5-4.1,5.1-5.935a4.932,4.932,0,0,1-3.07-4.572ZM16.84,35.607A4.686,4.686,0,0,0,18.034,32a5.275,5.275,0,0,0-3.378,1.736,4.759,4.759,0,0,0-1.274,3.577A4.178,4.178,0,0,0,16.84,35.607Z" transform="translate(-4 -32)" fill="#111"/></clipPath><linearGradient id="b" x1="0.076" y1="0.022" x2="0.685" y2="1.094" gradientUnits="objectBoundingBox"><stop offset="0" stop-color="#e91e8c"/><stop offset="1" stop-color="#f55b46"/></linearGradient><clipPath id="d"><rect width="24" height="24"/></clipPath></defs><g id="c" clip-path="url(#d)"><g transform="translate(2.277 0.716)" clip-path="url(#a)"><g transform="translate(-3.772 -1.577)"><path d="M11.685,0c6.453,0,11.685,6.146,11.685,13.728S18.138,27.457,11.685,27.457,0,21.31,0,13.728,5.231,0,11.685,0Z" transform="translate(1.521 0.539)" fill="url(#b)"/><path d="M5.644.468c-6.71-3.46-8.373,13.52.2,9.522S1.9,11.9,2.014,12.024c4.839,5.476,6.485,1.05,8.012,2.459,1.55,1.43,1.726-4.193,1.726-4.193A10.494,10.494,0,0,0,5.644.468Z" transform="matrix(-0.97, 0.242, -0.242, -0.97, 15.009, 22.928)" fill="#55cafb"/><path d="M2073.258,604.325c-9.919-1.054-14.73,7.737-12.328,13.588s6.1-2.957,10.049.881,12.818-3.4,12.818-3.4S2083.18,605.38,2073.258,604.325Z" transform="translate(-2058.8 -604.239)" fill="#6c28f5"/></g></g></g></svg>